<svg width="248" height="320" viewBox="0 0 248 320" xmlns="http://www.w3.org/2000/svg"><title>fan</title><g fill="#c9d8d7" fill-rule="evenodd"><path d="M259.4896 19.7486c3.7494-1.8672 4.604-5.3845 3.3136-9.0217-1.0262-2.8943-2.2095-5.734-3.362-8.5868-1.3466-3.331-6.3192-4.8786-9.5102-3.288-3.6926 1.8375-4.648 5.3884-3.3028 8.9912 1.0765 2.881 2.119 5.7683 3.3207 8.606 1.407 3.3187 6.3016 4.9122 9.5406 3.2992M229.0535 45.3116c3.2468-.517 6.4322-4.0043 5.372-7.3324-1.6067-5.0454-3.6916-10.0855-6.8228-14.484-3.2336-4.5395-11.9517-.7342-10.2752 4.5208 1.3104 4.1098 2.804 7.8958 3.928 12.0655.902 3.345 4.0613 5.8274 7.798 5.23M198.461 48.773c3.7556-2.288 3.9282-6.5763 1.5038-9.9074-1.2593-1.7276-1.627-2.271-2.886-4.3495-1.0786-1.7798-2.0743-3.6-3.0106-5.448-1.558-3.071-5.8623-4.762-9.1044-3.1482-3.3368 1.6605-4.7122 5.2634-3.162 8.6094 1.844 3.9764 4.0017 7.7935 6.4798 11.4527 2.286 3.3744 6.3023 5.1544 10.1794 2.791M177.3858 60.0024c-2.2105-4.4423-10.302-12.8107-13.062-16.9625-2.0346-3.0596-5.6643-4.8748-9.3534-3.2356-3.221 1.431-5.1456 5.687-3.2493 8.845 2.8646 4.7717 10.5216 14.0513 13.9834 18.4682 4.881 6.2306 15.0607-.3237 11.6814-7.1152M148.6953 87.77c3.8423-1.9127 4.6377-5.459 3.3687-9.169-1.7162-5.0122-9.9773-16.772-14.2688-20.0972-2.6588-2.0608-6.799-1.3144-8.9243.907-2.414 2.5227-2.1168 5.818-.134 8.5483.5748.7928 5.759 8.5135 6.3567 9.2903.1564.2012.392.5263.4898.6542.2285.3518.452.7056.6654 1.066 1.0338 1.7527 1.8962 3.613 2.7505 5.4478 1.5444 3.324 6.3237 5.0326 9.6958 3.3528M127.7936 103.2338c2.7547-2.419 3.3937-6.6497.746-9.5035-3.3014-3.5562-6.503-7.1625-9.3632-11.0516-1.94-2.638-6.2372-2.8378-8.8096-1.269-2.5664 1.5612-4.1972 5.3446-2.4072 8.1008 2.9284 4.5132 6.0627 8.9318 9.829 12.8604 2.5194 2.6257 7.1454 3.377 10.005.8628M100.5775 113.3612c-4.5835-3.8257-9.3063-8.2207-15.0564-10.3558-7.3232-2.7222-12.809 7.2026-6.266 11.4894 4.1894 2.743 8.011 5.7823 12.4814 8.0973 11.328 5.8646 15.1435-3.9722 8.841-9.2308M42.0084 289.295c-4.7233-1.783-9.4825-3.5305-14.394-4.7573-3.411-.8514-7.0505.2333-8.336 3.589-1.2388 3.2395.647 6.6703 3.91 7.9868 4.6814 1.89 9.4448 3.5685 14.107 5.5065 8.213 3.411 13.0738-9.1682 4.713-12.325M27.436 265.054c-5.753-3.1643-11.7775-5.9108-17.684-8.8002-6.7413-3.2987-12.8103 7.6766-6.0755 11.139 5.8424 3.002 11.6312 6.1935 17.6207 8.916 6.911 3.1446 12.8463-7.5662 6.1388-11.2547M33.659 246.215c1.25-3.2653-.7022-6.2582-3.769-7.701-4.3428-2.041-8.8473-3.7627-13.294-5.582-3.0734-1.257-6.7905.5354-7.8845 3.3952-1.2118 3.1618.6624 6.193 3.698 7.558 4.3824 1.9677 8.7297 4.044 13.2125 5.7907 3.1557 1.2267 6.9066-.508 8.037-3.461M34.8405 217.7193c2.8313-2.2764 3.1024-6.4262.7172-9.1588-3.8587-4.424-8.4123-8.23-13.2392-11.6733-3.0478-2.1747-7.6348-1.312-9.735 1.5538-2.2304 3.0435-1.229 7.0608 1.7933 9.2866 3.8292 2.821 7.357 5.942 10.8223 9.16 2.6582 2.4694 6.6574 3.2318 9.6415.8317M66.5162 198.8994c2.1296-2.9057 1.1815-6.7616-1.7144-8.8817l-10.146-7.4314c-2.8878-2.117-7.322-1.2308-9.312 1.4862-2.1296 2.9058-1.1815 6.7616 1.7144 8.8817 3.3816 2.479 6.764 4.9538 10.1457 7.433 2.888 2.1153 7.3223 1.2292 9.3122-1.4878M81.164 161.0647c1.9934-2.7192 1.4577-7.2843-1.7624-9.1313-4.0897-2.344-13.586-7.1948-18.2162-8.332-3.451-.845-7.1234.2267-8.4248 3.6282-1.251 3.2695 5.7896 9.4268 9.091 10.7515 3.3877 1.3594 6.6388 2.7106 9.7405 4.6112 3.1462 1.9295 7.4 1.4377 9.572-1.5275M117.824 156.6192c2.0152-2.7517 1.482-7.392-1.785-9.255-5.181-2.9537-10.362-5.906-15.5412-8.8592-3.1772-1.8112-7.278-1.4875-9.4752 1.5124-1.9982 2.7286-1.413 7.166 1.7437 9.038 5.118 3.0386 10.2365 6.0756 15.355 9.1126 3.2184 1.9106 7.479 1.4856 9.7028-1.5488M146.604 142.7576c2.7527-2.2143 3.0402-6.2803.7003-8.9393-3.0044-3.4143-6.3665-6.5656-9.5844-9.8008-2.528-2.543-6.6678-3.1344-9.5438-.823-2.6646 2.1425-3.243 6.5005-.7107 9.065 3.2078 3.248 6.3193 6.627 9.7265 9.6854 2.638 2.3685 6.4657 3.182 9.412.8126M160.4835 118.497c1.905-2.8555 1.4263-6.934-1.726-8.9466-.7726-.4913-1.5346-.9982-2.272-1.537-.3677-.27-.723-.5566-1.087-.8303-.178-.1418-.3544-.2848-.532-.428.3204.297.314.2926-.0173-.0097-1.4457-1.284-2.7474-2.707-3.9588-4.191-2.149-2.6274-6.8178-3.0296-9.3462-.8077-2.7467 2.4164-2.9402 6.0266-.6962 8.8778 2.847 3.6158 6.3658 6.7855 10.2573 9.37 2.919 1.9347 7.4342 1.4166 9.3782-1.4974M180.3856 101.411c2.842-2.2845 2.714-5.914.6793-8.6583-2.9255-3.94-7.1343-7.221-11.048-10.2457-2.3916-1.8493-6.2016-1.2215-8.1007.8234-1.8355 1.9767-2.4286 5.7042-.121 7.76 3.3737 3.0053 6.2297 6.4252 9.476 9.534 2.4753 2.3713 6.3224 3.0314 9.1143.7867M205.933 79.2228c2.81-2.4698 3.042-6.2116.7153-9.128-1.4684-1.842-2.937-3.6825-4.4057-5.523-2.131-2.6696-6.8888-3.0312-9.4123-.8113-1.234 1.0847-2.219 2.5642-2.2932 4.221-.078 1.7942.5038 3.2396 1.593 4.7184 1.3986 1.897 2.7955 3.795 4.1942 5.692.9334 1.2673 3.024 2.1473 4.5706 2.299 1.685.165 3.784-.3656 5.0383-1.4682M248.4028 84.3184c3.2688-1.6274 5.3812-5.7813 3.3688-9.169-2.812-4.7323-5.8663-9.3807-9.055-13.8927-1.9705-2.7887-6.6502-3.0073-9.297-1.3413-2.801 1.764-4.28 5.504-2.54 8.5513 2.4256 4.2487 5.0616 8.438 7.8275 12.4988 2.07 3.0403 5.9395 5.2246 9.6958 3.353M258.0422 52.674c3.52-2.145 3.8882-6.381 1.4434-9.5114-1.7734-2.274-3.546-4.5448-5.3195-6.8188-1.9024-2.4367-5.8125-2.709-8.2927-1.1963-2.4187 1.475-3.944 5.0282-2.2664 7.6268 1.5547 2.4074 3.1084 4.813 4.6618 7.2202.979 1.5148 2.0664 2.6024 3.7907 3.3034 1.9825.8078 4.2528.4296 5.9827-.624M232.5126 111.5633c3.5393-1.5714 4.6485-5.433 3.2157-8.757-2.2694-5.2636-5.7772-10.569-9.75-14.8343-2.1605-2.3206-5.8045-2.9286-8.5063-1.2268-2.4498 1.5443-4.0734 5.133-2.3243 7.8226 2.9476 4.5277 5.5972 9.038 8.1054 13.7934 1.6894 3.2016 5.848 4.7175 9.2596 3.202M205.9086 128.7666c2.7844-2.447 2.842-5.9285.6914-8.8134-2.512-3.3736-5.3357-6.4908-8.4723-9.3533-2.4673-2.255-6.4372-3.2045-9.1798-.7932-2.3734 2.0868-3.3038 6.275-.684 8.7213 3.1032 2.8942 5.8924 6.0412 8.3654 9.4377 1.9806 2.7194 6.8693 2.92 9.2792.801M193.7683 155.4323c1.5662-2.1365 1.4108-5.2455-.4103-7.2605-1.5224-1.6854-3.257-3.184-4.7428-4.9018-1.4802-1.7166-2.8114-3.574-4.1673-5.3786-1.9177-2.547-6.0423-2.7755-8.567-1.2352-2.741 1.6697-3.731 4.9977-2.341 7.88 2.6333 5.454 7.3792 10.215 12.9553 13.0016 2.4285 1.2134 5.8402-.1487 7.273-2.1055M160.1824 171.767c1.9354-2.901 1.468-7.0946-1.7624-9.1312-2.9773-1.8772-5.9475-3.753-8.9892-5.5367-3.1264-1.833-7.6124-1.5853-9.7015 1.5492-1.9527 2.927-1.4995 7.2084 1.787 9.254 2.9902 1.865 6.0414 3.6256 9.094 5.3925 3.0948 1.7936 7.5032 1.5755 9.572-1.5276M110.3113 181.8033c-4.2468-4.0322-9.6686-7.4815-15.098-9.88-6.5118-2.8753-11.0773 6.3635-5.568 10.206 4.0635 2.8308 8.0423 5.7876 12.104 8.6134 5.8217 4.0503 13.8984-3.8713 8.562-8.9394M99.5705 222.1744c3.0304-2.4363 2.7184-6.081.706-9.0006-3.399-4.9298-8.8317-9.1457-13.513-12.9313-2.761-2.2297-7.3415-1.125-9.249 1.4773-2.235 3.0514-1.0032 6.517 1.7037 8.82 3.9356 3.349 7.0856 7.3652 10.8745 10.817 2.638 2.4026 6.5258 3.1933 9.4778.8176M70.8804 238.2533c2.3312-3.1826 1.0732-6.8605-1.7866-9.2554-3.595-3.0076-7.4108-5.9685-11.3278-8.5866-2.8053-1.8748-6.7565-1.4852-8.9836.9137-2.025 2.1833-2.7113 6.349-.1365 8.609 3.9678 3.4837 8.1882 6.8145 12.5312 9.8695 3.054 2.1463 7.6002 1.3212 9.7032-1.5502M147.4797 203.312c2.9383-2.5838 2.793-5.9924.7086-9.0343-2.6602-3.8793-10.0657-14.5237-13.2686-18.0114-2.2714-2.4705-6.329-2.881-8.9507-.7727-2.7226 2.191-2.7558 5.8725-.667 8.502 3.201 4.0284 9.9362 14.511 12.6677 18.4962 1.9486 2.842 7.093 2.9453 9.51.8202M73.6374 271.846c1.297-3.389-.742-6.3782-3.8657-7.903-4.3528-2.1204-8.7986-4.048-13.225-6.0178-3.1134-1.3843-6.998.6162-8.0957 3.4857-1.269 3.319.7248 6.2702 3.797 7.7573 4.3634 2.1123 8.7043 4.2675 13.145 6.2268 3.175 1.402 7.1238-.6206 8.2444-3.549M85.109 296.386c-3.8313-3.043-7.5543-6.112-10.8658-9.6763-2.5088-2.6964-6.859-2.8435-9.3883-.204-2.7118 2.8326-1.7335 6.4763 1.0728 8.885 4.0623 3.4876 8.1742 6.9024 12.7516 9.771 6.2138 3.8986 12.021-4.3344 6.4295-8.7758M103.5055 259.4323c2.3407-3.1925 1.0913-6.9176-1.7987-9.3174-4.0955-3.401-7.768-7.2606-11.9425-10.5624-2.8157-2.225-7.391-1.4312-9.6265.9793-2.4004 2.585-2.5725 6.4585-.146 9.2206 3.82 4.3474 8.937 7.9357 13.7463 11.2385 3.099 2.1306 7.633 1.3564 9.7675-1.5587M110.6068 288.1873c1.222-2.3286.8104-6.072-1.93-7.4825-3.695-1.9004-6.409-3.9253-8.8485-6.94-2.574-3.18-7.7637-2.9794-10.4003-.2274-3.0075 3.14-1.9206 7.1754 1.1872 9.8445 3.696 3.1747 7.9076 5.7082 12.495 7.5293 2.8105 1.1162 6.1938-.2386 7.4966-2.724M132.358 231.805c3.229-1.4337 5.1644-5.7054 3.2585-8.8743-2.583-4.2985-5.0344-8.7058-7.832-12.8834-2.1122-3.1563-5.8447-5.041-9.6647-3.3448-3.359 1.4923-5.2786 5.858-3.3582 9.14 2.539 4.3383 5.459 8.4988 8.2123 12.7175 2.0143 3.085 5.7016 4.881 9.384 3.245M139.337 256.0913c-.7743-2.9878-2.6647-5.3625-4.424-7.8995-1.3576-1.9567-2.7022-3.912-4.1565-5.806-2.237-2.9197-7.4557-3.232-10.136-.876-3.106 2.7295-3.0147 6.4122-.755 9.6295 1.2992 1.8476 2.6842 3.6272 4.0716 5.4163 1.5727 2.023 3.0383 4.1856 5.27 5.619 4.4687 2.869 11.5407-.641 10.13-6.0833M168.8042 239.7755c3.1824-1.585 5.0955-5.5075 3.2278-8.7857-1.925-3.3796-3.473-6.911-5.2384-10.3623-1.6558-3.2332-6.1746-5.0277-9.6032-3.3198-3.7227 1.8536-4.7032 5.4452-3.335 9.081 1.363 3.6245 3.4557 6.949 5.659 10.1737 1.9876 2.9098 5.6867 5.0073 9.2898 3.213M181.6502 202.2517c.4272-4.2058-1.7878-8.942-3.0828-12.9355-1.0912-3.3644-4.204-6.3453-8.2324-5.523-3.343.6824-6.8793 4.135-5.6732 7.7425.8158 2.4362 1.6086 4.8823 2.486 7.3004.8614 2.376 1.5915 4.7048 3.331 6.6698 3.5837 4.0533 10.6492 1.889 11.1714-3.254M213.9808 195.398c2.5268-1.592 4.2632-5.3544 2.415-8.1304-1.6718-2.514-3.2593-5.0965-4.6066-7.781-1.3525-2.6943-2.2574-5.5717-3.6602-8.2396-3.5726-6.7984-14.8162-3.6593-13.3603 3.9558 1.304 6.8187 5.8363 13.592 10.3713 18.9195 2.1247 2.496 6.1304 2.983 8.8408 1.2756M230.091 155.834c3.3053-1.645 4.6904-5.2308 3.1403-8.5485-1.3105-2.8015-2.387-5.977-4.5088-8.325-1.9266-2.134-5.5438-3.0784-8.2157-1.7478-2.5922 1.291-4.4612 4.1318-3.768 7.019.7397 3.0802 2.6802 5.7436 4.3118 8.475 1.7552 2.9407 5.6687 4.8058 9.0405 3.1274M261.6763 145.6772c2.7024-2.173 2.9695-6.1437.6858-8.752-2.7666-3.1617-5.4665-6.547-7.747-9.947-1.7325-2.585-4.7848-4.1303-7.916-2.7382-2.8023 1.2448-4.2582 4.765-2.749 7.4854 2.528 4.5574 5.3975 8.9347 8.513 13.156 2.0415 2.768 6.7206 2.8008 9.2133.7958M266.0715 111.5606c2.5158-1.5332 4.0785-5.2062 2.348-7.9067-2.3447-3.6637-4.8434-7.3868-7.6283-10.7707-4.45-5.406-13.9797.2948-10.5577 6.4308 2.1137 3.793 4.6756 7.4774 7.2405 11.008 1.8776 2.5815 6.0986 2.762 8.5975 1.2386M259.2016 189.4982c3.3163-1.473 4.6576-5.3285 3.119-8.4906-2.2358-4.5964-5.0036-9.4248-8.1135-13.5454-1.8326-2.4293-5.847-2.7147-8.2608-1.1925-2.777 1.7483-3.378 4.6728-2.2575 7.599 1.621 4.2367 4.1 8.647 6.5346 12.5243 1.8725 2.9834 5.4963 4.6517 8.9783 3.1052M246.7984 205.601c-2.872-4.7926-6.1067-9.3545-8.815-14.246-3.5563-6.4203-13.7426-1.94-10.6242 4.7292 2.5598 5.471 5.3067 10.9923 8.8424 15.9705 4.0563 5.7118 14.203-.436 10.5968-6.4537M205.3808 239.3833c2.9733-1.3215 4.748-5.2498 2.9995-8.1667-2.592-4.3197-5.3638-8.541-8.0804-12.792-1.758-2.7524-5.078-4.3188-8.322-2.878-2.8958 1.286-4.54 5.0413-2.8904 7.8703 2.5287 4.3374 5.0042 8.7082 7.6583 12.9802 1.7884 2.8748 5.2956 4.4692 8.6348 2.986M233.908 233.9235c-2.1176-4.2427-4.013-8.7266-6.494-12.7923-1.462-2.3966-4.1753-3.8088-7.0476-2.9133-2.4822.773-4.7876 3.478-3.9347 6.166 1.5866 4.9994 3.8702 9.8394 5.8846 14.701 3.0298 7.303 15.208 2.0818 11.5918-5.1615M250.587 270.7294c2.671-1.1865 4.3904-4.8203 2.7382-7.455-2.2935-3.6602-4.4248-7.3914-6.2507-11.2792-1.3034-2.7717-5.0534-3.9583-7.8537-2.716-2.962 1.3165-3.996 4.629-2.728 7.4275 1.772 3.9106 3.792 7.703 6.2085 11.2955 1.7283 2.5706 4.7647 4.114 7.8856 2.7272M254.3658 239.1127c2.2958-1.4002 3.686-4.716 2.1327-7.1795-1.596-2.529-3.2587-5.016-4.93-7.5046-.8894-1.3204-1.7696-2.3624-3.3715-2.9393-1.406-.5055-3.3324-.5076-4.671.1594-2.617 1.3036-4.5765 4.8566-2.792 7.6027 1.9062 2.937 3.8333 5.8518 5.8268 8.7345 1.6438 2.3802 5.583 2.4815 7.805 1.1267M240.766 307.3644c2.9133-1.4517 4.3916-4.8186 2.8583-7.782-1.8224-3.5197-3.8773-6.8615-6.1748-10.1255-1.724-2.451-5.7616-2.5777-8.0792-1.166-2.3417 1.4277-3.8645 4.913-2.207 7.4314 1.8923 2.876 3.7228 5.791 5.3748 8.7974 1.5 2.7288 5.2315 4.338 8.228 2.8446M212.5562 273.3082c2.6693-2.3465 2.7388-5.702.6644-8.4697-2.686-3.583-5.2308-7.3412-8.2633-10.6722-2.0997-2.3062-5.6526-2.8042-8.2928-1.1963-2.3963 1.4605-3.9754 5.0498-2.265 7.627 2.7753 4.1848 6.0655 8.024 9.241 11.9416 2.039 2.5147 6.5112 2.884 8.9157.7696M174.849 280.413c2.5115-1.5833 3.6897-4.797 2.2322-7.5152-1.5454-2.8856-3.8035-5.4603-5.834-8.0506-1.919-2.449-3.8234-4.904-5.8268-7.2924-2.2407-2.6706-6.673-2.9274-9.313-.8035-2.885 2.32-2.7967 6.0585-.6923 8.846 1.7735 2.3512 3.6355 4.635 5.491 6.9295 1.835 2.2707 3.5592 4.7557 5.7715 6.7067 2.311 2.039 5.3768 2.9403 8.1715 1.1794M206.9135 302.4744c2.583-2.2697 2.8557-5.7902.663-8.47-1.6994-2.077-3.3982-4.1566-5.0976-6.2335-2.0722-2.5338-6.5762-2.9218-9.0167-.7778-2.576 2.2638-2.935 5.891-.671 8.5635 1.735 2.0488 3.47 4.099 5.205 6.1478 2.093 2.4712 6.476 2.9167 8.9172.77M151.5345 290.9994c2.1088-2.8775.9365-6.1194-1.601-8.2957-3.2897-2.8207-6.541-5.6958-9.913-8.43-2.659-2.1574-7.086-1.0824-8.9225 1.4233-2.1555 2.9434-.97 6.2908 1.643 8.5113 3.297 2.8 6.722 5.4666 10.1003 8.1784 2.6005 2.09 6.898 1.0648 8.6932-1.3873M178.7832 311.7905c2.434-1.4837 3.654-4.7553 2.1814-7.346-1.099-1.9358-2.349-3.7834-3.576-5.6498-.943-1.439-1.959-2.477-3.6053-3.1466-1.887-.7682-4.0492-.4086-5.6944.596-1.4603.8895-2.3546 2.1103-2.731 3.7266-.4696 2.0143.1244 3.654 1.3572 5.324 1.3305 1.805 2.6317 3.622 4.0796 5.3435 1.9247 2.29 5.5255 2.654 7.9884 1.1525M144.9248 316.5017c1.9882-2.982 1.2028-6.491-1.6796-8.696-2.5904-1.9837-5.4176-3.5108-8.4085-4.8765-2.9083-1.3274-6.5134.3787-7.8687 2.859-1.3337 2.4415-.8043 6.3645 2.0254 7.852 2.3876 1.2524 4.666 2.718 6.8135 4.316 2.73 2.033 7.2998 1.2723 9.1178-1.4545"/></g></svg>