<svg width="198" height="491" viewBox="0 0 198 491" xmlns="http://www.w3.org/2000/svg"><title>left</title><g fill="#c9d8d7" fill-rule="evenodd"><path d="M13.276 17.3564c1.4586-2.072 1.4128-5.4372-.732-7.1247C10.1695 8.36 2.431 1.9747-.0847.287-1.2703-.5077-3.3322-.546-4.64-.1554c-1.4464.4302-2.9916 1.611-3.6444 3.0004-1.45 3.0807-.3893 6.4953 2.554 8.205 2.1806 1.2673 9.7844 6.9245 12.054 8.0223 2.4575 1.1844 5.3675.5378 6.9523-1.716M24.1274 49.0305c1.3277-2.533.272-5.6288-2.1793-6.9948-1.555-.8654-3.1164-1.726-4.6678-2.6012-1.309-.7368-3.026-1.5428-3.8185-2.4478-2.5107-2.8793-7.469-1.4662-9.0662 1.5763-1.6157 3.082.0693 7.864 3.8347 8.3535-.1768-.3474.005-.309.5402.1137.4042.188.806.377 1.2114.5662.8085.3796 1.607.7628 2.4044 1.167 1.5848.8086 3.166 1.632 4.7494 2.448 2.4847 1.2782 5.6852.3102 6.9918-2.181M32.5864 73.0305c-5.2513-1.345-9.4593-4.8227-14.482-6.5783-6.6715-2.3316-11.495 7.7045-6.323 12.0006 4.8694 4.0426 12.038 5.2022 18.1113 6.2543 7.568 1.313 10.217-9.7504 2.6937-11.6765M41.5414 111.8658c.8122-2.4738-.309-4.761-2.219-6.3162-2.4154-1.9694-5.439-3.2267-8.2057-4.6286-3.0583-1.5528-6.1105-3.2254-9.332-4.4135-3.585-1.3228-7.7718.979-8.9313 4.5174-1.3005 3.9658 1.0285 7.3334 4.5157 8.932 2.8915 1.3252 5.9746 2.1993 8.9958 3.1784 3.1473 1.0224 6.3144 2.1722 9.6274 2.4985 2.4068.2385 4.8124-1.5182 5.5492-3.7682M4.9087 80.3087c.8974-2.538.0346-6.231-2.7654-7.3212-2.13-.8296-4.104-1.7877-6.0016-3.0598-.1274-.0878-.3128-.2164-.3832-.2695-.4525-.3375-.8963-.6788-1.3364-1.0323-1.2694-1.0176-2.4302-2.0536-3.8444-2.9004-2.8926-1.737-6.8175-.4748-8.6508 2.135-1.9247 2.737-1.5946 6.5498.91 8.869 2.0556 1.904 4.8432 3.1773 7.401 4.2813 2.759 1.1904 4.7715 1.9717 7.8002 3.0424 2.758.9766 5.9806-1.2227 6.8707-3.7447M9.7918 118.3845c1.617-3.082.2497-6.5016-2.5638-8.2323-5.035-3.0982-9.704-6.9578-14.87-9.805-3.2673-1.8-7.6236-.3498-9.3283 2.9078-1.858 3.543-.2447 7.3076 2.905 9.3302 4.9423 3.1722 10.531 5.426 15.628 8.3658 2.848 1.643 6.7432.267 8.229-2.5665M41.731 25.168c-4.5182-1.0853-8.9153-2.0298-13.2123-3.8422-2.8296-1.1967-6.1796-.4896-7.6927 2.3984-1.356 2.5838-.4352 6.4533 2.3957 7.697 5.0696 2.2278 10.3394 4.494 15.7304 5.7895 7.7448 1.8618 10.52-10.1807 2.779-12.0426M83.055 52.0397c-6.1525-3.04-13.4435-5.0934-20.3154-5.379-4.7878-.199-6.8757 7.6624-2.172 9.4118 5.7284 2.1276 11.2542 4.217 16.801 6.8032 7.0944 3.307 12.7907-7.325 5.6864-10.836M57.63 66.1458c.7787-3.3676-1.3932-6.0615-4.4256-7.085-4.7296-1.601-9.359-3.2627-13.86-5.4385-6.558-3.1698-11.8377 6.7538-5.2786 10.0608 5.323 2.6804 10.782 5.1232 16.4808 6.891 3.0484.946 6.4034-1.481 7.0833-4.4282M79.979 90.4066c-5.0226-2.58-10.0292-5.1812-15.0097-7.8417-6.7805-3.6212-12.2988 6.8736-5.5505 10.5762 4.9534 2.7174 9.871 5.4903 14.7785 8.2856 6.9437 3.956 12.938-7.3423 5.7817-11.0202M73.4455 111.529c-5.3823-3.1947-11.1677-5.7204-16.7997-8.4427-6.8942-3.3317-12.1986 6.7316-5.5294 10.5393 5.4317 3.1018 10.7906 6.4422 16.4733 9.0706 7.3652 3.4096 12.8575-7.0122 5.8558-11.1673M66.4666 147.2366c1.4204-3.0202.492-6.854-2.6268-8.43-1.7356-.878-3.4712-1.7557-5.2068-2.631-2.9112-1.4736-10.5348-2.4366-11.9836.6454-1.4216 3.0215-1.015 6.342 6.1822 10.4107 1.6935.958 3.4724 1.7555 5.208 2.632 2.9112 1.4712 6.9782.4562 8.427-2.627M38.0393 143.942c1.3215-2.81.5093-6.6203-2.502-8.0358-2.0076-.9433-3.9978-1.9225-6.0215-2.8286-6.7767-3.034-10.8734-2.4244-12.2802.5748-1.3227 2.81 1.2374 7.765 6.7508 9.967 2.057.8195 4.0126 1.8852 6.0202 2.8273 2.8123 1.3215 6.6235.4932 8.0327-2.5047M14.8887 150.4106c-5.8718-1.7913-11.8055-3.3194-17.639-5.2455-3.213-1.0606-6.7966 1.611-7.5074 4.6943-.8233 3.5642 1.4748 6.4298 4.6913 7.5116 5.8014 1.9507 11.677 3.8472 17.6947 5.002 7.8238 1.5007 10.2826-9.6678 2.7604-11.9624M63.9775 177.9094c.7936-3.432-1.429-6.6672-4.7235-7.5623-3.654-.994-7.3194-1.942-10.991-2.8755-3.2226-.822-6.9917 1.4353-7.6098 4.756-.6453 3.4603 1.3215 6.713 4.7556 7.6117 3.664.9557 7.3305 1.8977 11.0107 2.7965 3.3067.806 6.7977-1.4353 7.558-4.7263M94.0296 179.0684c1.35-3.6396-.8492-6.7983-4.2673-7.9888-.67-.2324-1.0532-.3894-1.9927-.8048-.9246-.4043-1.8345-.8345-2.7332-1.2895-1.7974-.9086-3.5342-1.9236-5.229-3.0115-2.6553-1.705-6.5172-.162-7.8918 2.4602-1.6033 3.0585-.162 6.112 2.46 7.8948 3.5318 2.4046 7.2786 4.3505 11.2122 6.0133 3.319 1.4045 7.1068.334 8.4418-3.2736M99.461 144.123c-2.6294-1.5527-5.5345-2.653-8.3517-3.8213-2.9-1.2004-5.8904-2.517-8.956-3.2106-2.428-.55-4.982.8235-5.8114 3.1687-.8976 2.5443.21 4.73 2.3424 6.1937 2.3636 1.6245 5.0362 2.8583 7.574 4.1873 2.554 1.3377 5.0487 2.8373 7.7114 3.95 6.9523 2.9015 12.1344-6.5486 5.491-10.4676M111.6404 129.191c1.623-3.0956.168-6.2073-2.4958-8.0085-4.6876-3.1736-10.112-5.515-15.116-8.1656-6.511-3.4494-11.6128 6.394-5.2983 10.0953 4.8866 2.8644 9.736 6.253 14.9046 8.5748 2.9185 1.308 6.4528.4637 8.0054-2.496M125.7237 104.8864c1.2028-2.5567.476-6.0862-2.292-7.3608-1.2917-.5934-2.592-1.1658-3.8938-1.7358-.5243-.8073-1.245-1.5144-2.1375-2.0868-1.0223-.6565-2.224-.9495-3.3735-1.3154-.4104-.131-.822-.2695-1.2288-.4154-.1335-.057-.6292-.2534-.7714-.3128-1.7615-.7318-3.5045-1.5465-5.2006-2.423-5.1277-2.6506-10.704 4.6434-5.9806 8.5018 3.2314 2.642 7.2143 5.4124 11.4062 6.5127 2.025.9976 4.0584 1.983 6.113 2.9274 2.5873 1.1906 6.0622.4686 7.359-2.292M149.0518 128.168c1.288-2.4566.3412-5.7957-2.1954-7.0493-4.0115-1.983-8.1626-3.6075-12.221-5.4767-3.2486-1.4947-7.066-.24-8.3565 3.2403-1.2042 3.249.6724 7.1914 4.224 7.906 3.9285.79 7.7644 2.14 11.5026 3.5777 2.6244 1.01 5.6295.5044 7.0462-2.198M145.4966 148.8906c-4.4763-1.942-8.7262-4.526-13.2358-6.342-3.208-1.2907-6.9313-.5873-8.6533 2.6963-1.665 3.1734-.3103 6.9168 2.6973 8.6563 4.5887 2.6518 10.1825 4.1477 15.2483 5.6312 6.1576 1.8025 9.9403-8.042 3.9436-10.642M131.8563 170.6124c-4.1672-2.1857-9.0983-4.6422-13.7105-5.6213-7.0054-1.4872-10.8265 8.3684-4.3785 11.8053 4.177 2.2265 9.5062 3.5246 14.116 4.5346 6.3465 1.3932 9.8436-7.6403 3.973-10.7186M122.3483 202.5793c.717-3.108-1.2955-6.0936-4.302-6.886-3.4377-.9075-6.8743-1.993-10.3912-2.5307-3.1497-.4797-6.6753 1.1646-7.3107 4.5705-.6193 3.3356 1.2733 6.4362 4.569 7.3114 3.4427.915 7.0338 1.2944 10.5507 1.8372 3.0608.4734 6.1513-1.1263 6.8843-4.3023M90.175 203.4173c-5.3638-2.1314-10.9365-5.4557-16.6192-6.519-7.1575-1.3388-11.4 8.7232-4.5343 12.233 5.2068 2.6617 11.5496 3.4777 17.152 5.0824 6.223 1.7827 10.1886-8.3387 4.0015-10.7964M133.2905 228.9063c-2.4415-1.528-5.5542-2.318-8.202-3.4813-2.7147-1.1918-5.3478-2.5332-7.9203-4.0043-4.9336-2.8212-10.3653 4.599-5.815 8.2645 2.6665 2.1536 5.4504 4.175 8.3418 6.0182 2.8506 1.8198 6.051 3.8448 9.3925 4.5408 6.9918 1.4638 9.976-7.7242 4.203-11.338M159.0644 216.73c-4.888-2.3785-9.897-4.2848-14.6216-7.028-2.826-1.6407-6.7013-.2597-8.1736 2.5478-1.6058 3.0623-.2472 6.456 2.5453 8.1768 4.9905 3.0746 10.3814 6.0553 16.0592 7.6055 6.631 1.8063 10.4074-8.2755 4.1907-11.302M160.851 193.553c-4.4552-2.1252-9.013-3.5135-13.2358-6.164-2.513-1.5763-6.113-.172-7.4146 2.3105-1.4896 2.841-.1767 5.7796 2.3092 7.4165 4.4354 2.9188 9.0958 6.017 14.2383 7.5054 6.4666 1.8742 10.1986-8.1594 4.103-11.0684M177.874 177.276c-4.726-2.2697-9.651-3.9226-14.2657-6.473-4.973-2.7483-10.677 4.819-5.8867 8.3683 4.9435 3.663 10.1664 7.2248 16.0926 9.057 6.39 1.9743 10.0564-8.0742 4.0597-10.9522M176.4348 161.7647c2.2313-3.1685.879-6.692-2.0743-8.7268-5.14-3.542-10.452-6.8096-15.9282-9.8075-6.0956-3.3343-10.6324 5.776-4.9484 9.4328 4.8556 3.1253 9.5247 6.4904 14.0367 10.0954 2.795 2.2315 6.741 2.0906 8.914-.994M196.017 214.7676c-2.0905-1.9137-4.5715-3.49-6.8535-5.1725-2.471-1.8222-4.9348-3.8992-7.6507-5.3332-6.077-3.207-12.5893 5.4655-7.077 10.0583 2.3758 1.9806 5.167 3.511 7.805 5.111 2.433 1.4723 4.8398 3.171 7.4135 4.38 5.5888 2.6283 11.17-4.646 6.3626-9.0434M190.9515 244.1238c1.4933-2.851.1855-5.8377-2.3277-7.472-4.2784-2.783-8.202-6.263-12.6832-8.712-2.6813-1.4688-6.2118-.5354-7.9054 1.9507-1.5588 2.2884-1.7232 6.2976.8295 8.1063 4.601 3.2613 9.7893 5.5595 14.6166 8.455 2.56 1.5378 6.139.21 7.4702-2.328M160.9572 256.2216c1.1423-3.0808-.2386-6.023-2.921-7.733-1.7505-1.1163-3.711-1.837-5.6123-2.6492-2.1548-.9223-4.2847-2.0906-6.5556-2.679-5.6963-1.4675-10.1206 6.4607-5.4392 10.324 1.9087 1.5788 4.1882 2.6618 6.3775 3.804 2.2115 1.1523 4.4712 2.2563 6.8966 2.8905 3.0336.7924 6.2044-1.119 7.254-3.9574M183.24 276.78c1.1038-2.9818-.266-5.552-2.7012-7.2902-.3585-.241-1.204-.822-1.3276-.8926-.4315-.2485-.8876-.4574-1.329-.6898-.8813-.465-1.7528-.952-2.628-1.4304-2.0138-1.1065-3.9187-2.3242-6.1055-3.0573-2.2895-.7677-5.3515.7912-6.3515 2.915-1.1497 2.4467-.5885 4.913 1.193 6.8726 1.508 1.6566 3.9804 2.9646 5.894 4.1452 2.099 1.2932 4.1375 2.3527 6.4615 3.1872 2.79 1.0014 5.967-1.2536 6.8942-3.7596"/><path d="M180.4633 269.4325c.0272.0185.0482.0395.0766.058.1965.136.2472.1682-.0767-.058M171.9574 300.9328c1.5712-2.9955.2707-6.431-2.5206-8.0927-4.0027-2.3822-8.0648-4.8646-12.2963-6.823-3.1473-1.455-7.0128-.4796-8.683 2.7076-1.6613 3.1673-.3226 6.959 2.7073 8.6823 4.0522 2.308 8.4357 4.171 12.7042 6.0478 2.9595 1.3006 6.5135.486 8.0884-2.522M162.9274 330.1338c1.544-2.9448.1694-5.9342-2.3796-7.6427-4.491-3.0115-8.6-6.4866-12.9292-9.717-2.7246-2.035-6.433-2.3143-8.9092.377-2.219 2.412-2.2523 6.7254.377 8.911 4.93 4.096 10.5793 7.403 16.2014 10.4528 2.6838 1.455 6.234.298 7.6396-2.381M135.6034 275.2148c1.398-2.972.371-6.2432-2.4588-7.896-3.4823-2.0326-6.9164-4.3048-10.5545-6.0455-2.7838-1.334-6.5838-.476-7.9757 2.4837-1.4748 3.134-.2843 6.154 2.4835 7.98 3.3673 2.2242 7.0783 3.997 10.6126 5.938 2.685 1.4724 6.5678.3597 7.893-2.4602M128.1128 299.8287c.6156-2.6654-.7714-5.028-2.957-6.446-1.989-1.292-4.4564-2.0435-6.653-2.9337-2.4317-.9865-4.9597-2.3996-7.542-2.8768-3.0645-.565-6.1908.9408-7.254 3.9573-1.104 3.1204.2188 5.9774 2.921 7.733 2.2648 1.47 5.3664 2.1733 7.9302 3.0585 2.6677.9186 5.2588 1.7333 8.0723 2.004 2.518.2448 4.9558-2.2142 5.4825-4.4963M106.4482 353.5018c.6144-2.6655-.7714-5.028-2.957-6.446-1.989-1.293-4.4564-2.0448-6.653-2.935-2.433-.9865-4.961-2.3983-7.542-2.8755-3.0645-.565-6.192.9408-7.2552 3.9573-1.104 3.1204.2188 5.9774 2.921 7.733 2.266 1.47 5.3676 2.1733 7.9315 3.0585 2.6664.9186 5.2587 1.732 8.0722 2.004 2.517.2436 4.956-2.214 5.4825-4.4962M102.899 384.3036c.6144-2.6654-.7714-5.028-2.9582-6.446-1.9878-1.293-4.4552-2.0448-6.652-2.935-2.4327-.9864-4.9607-2.3982-7.5418-2.8755-3.0645-.5648-6.192.941-7.2552 3.9575-1.104 3.1203.2188 5.9774 2.921 7.733 2.2648 1.4698 5.3676 2.1733 7.9315 3.0584 2.6664.9185 5.2587 1.732 8.071 2.004 2.518.2435 4.957-2.2142 5.4837-4.4964M135.5805 369.3632c.6144-2.6654-.7713-5.028-2.957-6.446-1.989-1.292-4.4563-2.0435-6.653-2.9336-2.4328-.9878-4.9596-2.3997-7.542-2.877-3.0645-.5648-6.1908.941-7.255 3.9575-1.1028 3.1204.2187 5.9775 2.9222 7.733 2.2647 1.47 5.3663 2.1734 7.93 3.0585 2.6678.9186 5.2588 1.7333 8.0724 2.004 2.517.2448 4.956-2.214 5.4825-4.4963M93.8353 411.044c-1.989-1.2918-4.4564-2.0434-6.6543-2.9348-2.4316-.9865-4.9596-2.3984-7.5407-2.8756-3.0645-.565-6.1908.9408-7.2552 3.9574-1.1026 3.119.2177 5.976 2.9224 7.733 2.2647 1.4698 5.3663 2.1732 7.93 3.0584 2.6678.9186 5.259 1.7333 8.0724 2.004 2.5156.2448 4.9558-2.214 5.4825-4.4963.6156-2.6653-.7714-5.0278-2.957-6.446M146.14 348.504c1.4043-2.6777.131-5.3134-2.1436-6.8822-4.0843-2.8163-7.7508-6.279-12.2802-8.4216-3.015-1.4266-6.7483-.4425-8.3442 2.6012-1.5798 3.014-.3325 6.7278 2.601 8.3448 4.3093 2.3786 9.1106 3.8634 13.2876 6.5016 2.324 1.47 5.6766.1545 6.8794-2.1437M108.952 315.4433c-6.4677-2.5937-12.8922-5.4062-19.5342-7.5338-6.6148-2.1215-10.636 8.6193-4.2463 11.4566 6.3688 2.825 13.054 4.9736 19.606 7.3386 6.397 2.3106 10.563-8.7022 4.1745-11.2613M107.426 245.36c.7454-3.223-1.3363-5.9848-4.318-6.9107-4.8668-1.5132-9.5643-3.511-14.3916-5.1467-6.517-2.2067-10.6348 8.706-4.219 11.38 5.2055 2.1684 10.5804 3.5604 16.0196 4.997 3.009.795 6.2242-1.3525 6.909-4.3196M90.3452 261.9713c-5.7977-3.1266-11.7993-6.3372-18.0878-8.3486-6.61-2.1128-10.3036 8.2695-4.1906 11.3008 5.485 2.721 11.2616 4.8376 16.749 7.5883 6.8385 3.427 12.2963-6.8935 5.5294-10.5405M79.0386 292.534c1.4575-2.7765.4265-6.7425-2.5292-8.121-3.946-1.842-7.8213-3.8262-11.8278-5.531-3.119-1.3266-6.8188-.5354-8.485 2.643-1.5157 2.8905-.4538 7.063 2.644 8.4884 3.9657 1.8247 8.055 3.364 12.0812 5.0514 2.9916 1.2548 6.5172.523 8.1168-2.5307M46.1253 258.772c-2.8432-2.0905-5.9522-3.762-8.8647-5.7536-2.9544-2.0238-5.71-4.3665-8.7806-6.206-6.244-3.7435-12.0095 5.2912-7.1253 10.1262 2.6912 2.6618 6.1908 4.745 9.5038 6.5548 3.277 1.79 6.7643 3.584 10.39 4.531 4.951 1.293 9.3345-5.975 4.8768-9.2524M55.5548 236.909c-2.601-1.8816-5.2007-3.7608-7.8016-5.64-1.3004-.9407-2.596-1.8877-3.9-2.821-.7468-.538-1.4996-1.0695-2.2537-1.596-1.3722-5.608-10.086-6.074-11.6053.1074-1.3548 5.5324 2.853 8.628 6.946 11.3095 4.0313 2.6393 8.0885 5.2343 12.1333 7.8527 5.328 3.4505 11.7152-5.4285 6.4813-9.2127M64.9637 218.2308c-4.3007-2.4466-8.5853-4.9055-12.9675-7.2038-6.5444-3.427-11.8674 6.6722-5.338 10.171 4.3626 2.3377 8.8017 4.5036 13.2396 6.687 6.296 3.0968 11.1726-6.1778 5.066-9.6542M39.4325 188.137c-5.537-3.008-12.5275-4.9463-18.7232-6.0058-7.8003-1.334-10.557 10.0954-2.7814 12.0438 5.8062 1.455 11.8116 3.207 17.702 4.2157 6.0474 1.0347 9.4815-7.168 3.8025-10.2537M99.8713 82.2228c1.1744-3.1735-.3028-5.933-2.931-7.7576-2.0693-1.4366-4.7494-1.9892-7.145-2.6877-2.3538-.686-4.669-1.3166-7.1415-1.3216-4.376-.0112-6.406 5.8005-3.23 8.6662 1.833 1.6542 4.0372 2.763 6.1907 3.9264 2.2523 1.219 4.4453 2.5938 6.977 3.1427 3.0818.6688 6.1908-1.0262 7.2798-3.9685M18.9135 209.2925c-4.2426-3.6544-10.0477-5.777-15.0888-8.0864-2.6504-1.2152-5.8942-.4092-7.2985 2.276-1.3326 2.538-.3584 6.0108 2.2734 7.304 2.3487 1.1534 4.59 2.4354 6.7965 3.8448 2.1745 1.3883 4.2377 3.145 6.5494 4.28 5.8644 2.8805 12.0157-5.0984 6.768-9.6183M5.54 230.2247c1.517-3.228.24-6.143-2.5118-8.0643-2.696-1.8803-5.9547-3.1994-8.8696-4.7238-2.6912-1.4056-6.501-.398-7.8362 2.443-1.3882 2.9534-.3646 6.1937 2.4427 7.839 2.841 1.6642 5.6866 3.73 8.714 5.0194 2.868 1.2202 6.6123.5687 8.061-2.5133M7.205 260.0234c.8417-2.642-.67-5.7672-3.386-6.561-4.2945-1.2547-8.6657-2.135-12.9873-3.271-3.459-.9075-6.9993.9914-7.6656 4.642-.6217 3.4085 1.9112 6.9665 5.532 7.0518 4.0077.0977 8.019.7603 11.949 1.5268 2.7603.539 5.6307-.4796 6.558-3.3886M7.3014 281.049c-4.7457-1.1348-9.379-2.9422-14.137-3.9473-3.381-.7146-6.9275.6243-8.0524 4.1576-1.088 3.4158.895 6.8675 4.1585 8.0568 4.9793 1.815 10.7486 2.317 15.995 2.898 6.3786.707 8.3936-9.6455 2.036-11.165M-2.3587 304.8094c-4.485-1.428-9.767-2.9906-14.4794-3.155-7.1564-.2485-9.2084 10.1214-2.2623 12.3863 4.501 1.4674 9.9735 1.8198 14.6895 2.015 6.4912.2684 8.3665-9.235 2.052-11.2463M9.1737 361.9685c-2.6676-1.0817-5.8718-1.3178-8.6804-2.004-2.8816-.7022-5.7075-1.565-8.4963-2.5665-5.349-1.9224-9.4086 6.3273-4.2908 9.1485 3.0002 1.6566 6.092 3.1636 9.259 4.4778 3.1238 1.2968 6.6272 2.7346 10.0378 2.841 7.1414.2274 8.484-9.3402 2.1707-11.8968M32.4427 345.5016c-5.2265-1.4935-10.4902-2.501-15.619-4.3814-3.0683-1.1262-6.6458.9062-7.6076 3.929-1.0506 3.2933.8778 6.4 3.9275 7.6104 5.4478 2.1598 11.274 4.1588 17.136 4.699 6.8422.628 8.8114-9.9556 2.1632-11.857M30.1768 322.3666c-4.7568-1.319-9.4852-1.8952-14.1048-3.772-2.748-1.1162-6.05.8927-6.9004 3.563-.9728 3.0562.8307 5.7216 3.564 6.9035 4.873 2.1042 9.9994 4.3456 15.3224 4.918 6.6952.7232 8.6286-9.8074 2.1188-11.6124M44.1153 303.3806c-5.0486-1.4155-10.1837-2.1882-15.1717-3.8967-5.375-1.8434-9.6793 6.599-4.344 9.262 5.5035 2.7495 11.2654 5.3494 17.4203 6.1258 6.6345.8345 8.501-9.6973 2.0953-11.4912M40.006 288.3545c1.6465-3.5073-.2967-6.7426-3.5578-8.2348-5.679-2.595-11.4755-4.8907-17.3893-6.891-6.5828-2.2265-9.4693 7.535-3.2365 10.1498 5.3255 2.2327 10.5076 4.7362 15.5772 7.5018 3.14 1.7134 7.0017.8888 8.6062-2.5258M68.4538 336.8633c-2.392-1.5206-5.108-2.642-7.647-3.903-2.7493-1.366-5.537-2.983-8.4604-3.9238-6.542-2.103-11.4495 7.5684-5.223 11.134 2.684 1.539 5.6977 2.5602 8.5743 3.6778 2.6516 1.0273 5.3168 2.2822 8.06 3.0276 5.9595 1.617 10.1934-6.5165 4.696-10.0127M78.6305 320.452c-2.392-1.5207-5.1066-2.642-7.647-3.903-2.7492-1.366-5.5368-2.9832-8.4604-3.924-6.5418-2.103-11.4482 7.5685-5.2228 11.134 2.6838 1.539 5.6976 2.5602 8.5754 3.6778 2.6504 1.0274 5.3156 2.2822 8.0587 3.0277 5.9596 1.617 10.1935-6.5164 4.6962-10.0126M68.6023 366.9413c.9753-3.066-.8307-5.7808-3.59-6.954-4.6962-1.999-9.1637-4.7436-14.002-6.378-2.8965-.9804-6.212.5526-7.448 3.2947-1.1374 2.5245-.6034 6.5016 2.225 7.8405 5.098 2.4107 10.604 3.773 15.8627 5.787 2.7888 1.0694 6.0808-.8592 6.9523-3.5902M41.165 384.0645c.5883-3.233-1.282-5.891-4.2205-7.1086-1.9185-.795-3.9743-1.1634-5.988-1.6344-2.2832-.533-4.5813-1.3142-6.9202-1.4997-5.8656-.4562-8.8448 8.1198-3.564 11.1116 2.1548 1.2227 4.5876 1.894 6.94 2.6382 2.3797.7517 4.7964 1.4452 7.2935 1.6492 3.1263.2534 5.919-2.1795 6.459-5.1565M66.678 400.441c.5686-3.1278-1.225-5.421-3.9262-6.7105-.3943-.1744-1.329-.5996-1.4624-.648-.4673-.1692-.953-.2978-1.429-.45-.9482-.304-1.8914-.6328-2.837-.9518-2.1733-.7393-4.2624-1.6072-6.5432-1.9508-2.387-.3587-5.1326 1.7096-5.7482 3.9745-.707 2.6085.2732 4.9414 2.3685 6.561 1.774 1.3697 4.4354 2.2277 6.5233 3.0585 2.292.9086 4.4824 1.5985 6.9177 2.0163 2.921.502 5.658-2.271 6.1364-4.8993"/><path d="M62.6664 393.6867c.032.0136.0556.0297.0853.0445.2188.099.2744.1224-.0853-.0445M59.7606 426.186c1.026-3.223-.8505-6.3804-3.889-7.5313-4.355-1.6505-8.7843-3.391-13.2927-4.5842-3.3526-.8864-6.9907.7455-8.081 4.1737-1.0854 3.4072.89 6.9096 4.172 8.0803 4.3923 1.57 9.033 2.6432 13.5623 3.7497 3.14.7664 6.4986-.6528 7.5283-3.888M55.9386 456.5117c1.0087-3.1686-.8653-5.8736-3.6715-7.1136-4.9446-2.1856-9.595-4.8943-14.42-7.3248-3.036-1.5293-6.737-1.161-8.7076 1.9187-1.7665 2.7605-1.0507 7.0145 1.9186 8.7095 5.5653 3.1797 11.704 5.4544 17.77 7.482 2.8964.9667 6.191-.79 7.1106-3.6718M19.493 407.1722c.8604-3.1698-.7182-6.2135-3.7926-7.3496-3.7815-1.397-7.5592-3.0376-11.4433-4.1205-2.9742-.8295-6.5665.6763-7.4232 3.8325-.9073 3.3404.79 6.1085 3.8322 7.4276 3.701 1.6035 7.6643 2.7063 11.483 4.003 2.8975.9842 6.528-.785 7.344-3.7928M16.534 432.7224c.1422-2.731-1.633-4.8166-4.031-5.834-2.1832-.9285-4.7446-1.24-7.0636-1.7345-2.565-.549-5.2995-1.501-7.9252-1.5232-3.1152-.0235-5.9337 2.0015-6.4566 5.1565-.5464 3.265 1.2523 5.8488 4.219 7.1086 2.4848 1.0544 5.663 1.209 8.342 1.6355 2.7862.4413 5.4786.7925 8.297.5712 2.5207-.1966 4.496-3.0413 4.6185-5.3803M42.273 477.6654c.9172-2.8806-.7937-5.2567-3.308-6.4052-4.511-2.0658-8.7213-4.8388-13.556-6.1616-3.2153-.8802-6.721.7356-7.7645 4.0105-1.0334 3.243.8406 6.6834 4.009 7.7664 4.658 1.5948 9.6434 2.2228 14.2148 4.0958 2.5466 1.0446 5.6172-.8333 6.4047-3.3058M1.298 488.1188c.9184-2.8805-.7937-5.2566-3.307-6.4064-4.5107-2.0645-8.721-4.8375-13.5558-6.1603-3.2153-.8802-6.7212.7357-7.7645 4.0106-1.0334 3.2427.8406 6.6833 4.009 7.7663 4.658 1.5946 9.6434 2.2227 14.2148 4.0956 2.5453 1.0447 5.6172-.8332 6.4034-3.3058M.232 451.4175c-6.8213-1.4304-13.635-3.0845-20.5454-4.0266-6.883-.941-8.9796 10.3352-2.1942 12.019 6.7644 1.6764 13.7204 2.632 20.5836 3.8226 6.7014 1.1658 8.8907-10.4033 2.156-11.815"/></g></svg>